<?xml version="1.0" standalone="no"?><svg xmlns="http://www.w3.org/2000/svg" viewBox="0 0 1440 320"><path fill="#0099ff" fill-opacity="1" d="M0,64L34.3,96C68.6,128,137,192,206,197.3C274.3,203,343,149,411,112C480,75,549,53,617,85.3C685.7,117,754,203,823,250.7C891.4,299,960,309,1029,272C1097.1,235,1166,149,1234,144C1302.9,139,1371,213,1406,250.7L1440,288L1440,0L1405.7,0C1371.4,0,1303,0,1234,0C1165.7,0,1097,0,1029,0C960,0,891,0,823,0C754.3,0,686,0,617,0C548.6,0,480,0,411,0C342.9,0,274,0,206,0C137.1,0,69,0,34,0L0,0Z"></path></svg>